<?xml version="1.0" encoding="UTF-8"?>
<svg xmlns="http://www.w3.org/2000/svg" xmlns:xlink="http://www.w3.org/1999/xlink" width="0" height="0">
<symbol id="loader" viewBox="0 0 64 64"><defs><clipPath><path fill="none" d="M12 35l-5.28-4.21-2-6 1-7 4-5 5-3h6l5 1 3 3L33 20l-6 4h-6l-3 3v4l-4 2-2 2z"/></clipPath></defs><g clip-path="url(#a)"><g><path fill="none" stroke="#72b9d5" stroke-linecap="round" stroke-linejoin="round" stroke-width="2" d="M29.33 26.68a10.61 10.61 0 01-10.68-10.54A10.5 10.5 0 0119 13.5a10.54 10.54 0 1011.5 13.11 11.48 11.48 0 01-1.17.07z"/><animateTransform attributeName="transform" dur="10s" repeatCount="indefinite" type="rotate" values="-10 19.22 24.293;10 19.22 24.293;-10 19.22 24.293"/></g></g><path fill="none" stroke="#e5e7eb" stroke-linecap="round" stroke-linejoin="round" stroke-width="3" d="M43.67 45.5h2.83a7 7 0 000-14h-.32a10.49 10.49 0 00-19.11-8 7 7 0 00-10.57 6 7.21 7.21 0 00.1 1.14A7.5 7.5 0 0018 45.5a4.19 4.19 0 00.5 0v0"/><g><circle cx="31" cy="45" r="1.25" fill="none" stroke="#72b8d4" stroke-miterlimit="10"/><path fill="none" stroke="#72b8d4" stroke-linecap="round" stroke-miterlimit="10" d="M33.17 46.25l-1.09-.63m-2.16-1.24l-1.09-.63M31 42.5v1.25m0 3.75v-1.25m-1.08-.63l-1.09.63m4.34-2.5l-1.09.63"/><animateTransform additive="sum" attributeName="transform" dur="4s" repeatCount="indefinite" type="translate" values="-1 -6; 1 12"/><animateTransform additive="sum" attributeName="transform" dur="9s" repeatCount="indefinite" type="rotate" values="0 31 45; 360 31 45"/><animate attributeName="opacity" dur="4s" repeatCount="indefinite" values="0;1;1;1;0"/></g><g><circle cx="24" cy="45" r="1.25" fill="none" stroke="#72b8d4" stroke-miterlimit="10"/><path fill="none" stroke="#72b8d4" stroke-linecap="round" stroke-miterlimit="10" d="M26.17 46.25l-1.09-.63m-2.16-1.24l-1.09-.63M24 42.5v1.25m0 3.75v-1.25m-1.08-.63l-1.09.63m4.34-2.5l-1.09.63"/><animateTransform additive="sum" attributeName="transform" begin="-2s" dur="4s" repeatCount="indefinite" type="translate" values="1 -6; -1 12"/><animateTransform additive="sum" attributeName="transform" dur="9s" repeatCount="indefinite" type="rotate" values="0 24 45; 360 24 45"/><animate attributeName="opacity" begin="-2s" dur="4s" repeatCount="indefinite" values="0;1;1;1;0"/></g><g><circle cx="38" cy="45" r="1.25" fill="none" stroke="#72b8d4" stroke-miterlimit="10"/><path fill="none" stroke="#72b8d4" stroke-linecap="round" stroke-miterlimit="10" d="M40.17 46.25l-1.09-.63m-2.16-1.24l-1.09-.63M38 42.5v1.25m0 3.75v-1.25m-1.08-.63l-1.09.63m4.34-2.5l-1.09.63"/><animateTransform additive="sum" attributeName="transform" begin="-1s" dur="4s" repeatCount="indefinite" type="translate" values="1 -6; -1 12"/><animateTransform additive="sum" attributeName="transform" dur="9s" repeatCount="indefinite" type="rotate" values="0 38 45; 360 38 45"/><animate attributeName="opacity" begin="-1s" dur="4s" repeatCount="indefinite" values="0;1;1;1;0"/></g><g><path fill="#f59e0b" d="M30 36l-4 12h4l-2 10 10-14h-6l4-8h-6z"/><animate attributeName="opacity" dur="2s" repeatCount="indefinite" values="1;1;1;1;1;1;0.1;1;0.1;1;1;0.1;1;0.1;1"/></g></symbol>
<symbol id="raindrops" viewBox="0 0 64 64"><defs><linearGradient x1="17.61" x2="31.27" y1="21.85" y2="45.52" gradientUnits="userSpaceOnUse"><stop offset="0" stop-color="#3392d6"/><stop offset=".45" stop-color="#3392d6"/><stop offset="1" stop-color="#2477b2"/></linearGradient><linearGradient id="b" x1="29.61" x2="43.27" y1="21.85" y2="45.52" xlink:href="#a"/></defs><path fill="url(#a)" stroke="#2885c7" stroke-miterlimit="10" stroke-width=".5" d="M26 17c-6.09 9-10 14.62-10 20.09a10 10 0 0020 0C36 31.62 32.09 26 26 17z"><animateTransform attributeName="transform" calcMode="spline" dur="5s" keySplines="0.5 0 0.5 1; 0.5 0 0.5 1" repeatCount="indefinite" type="scale" values="1 1; 1 .9; 1 1"/></path><path fill="url(#b)" stroke="#2885c7" stroke-miterlimit="10" stroke-width=".5" d="M38 17c-6.09 9-10 14.62-10 20.09a10 10 0 0020 0C48 31.62 44.09 26 38 17z"><animateTransform attributeName="transform" begin="-3s" calcMode="spline" dur="5s" keySplines="0.5 0 0.5 1; 0.5 0 0.5 1" repeatCount="indefinite" type="scale" values="1 1; 1 .9; 1 1"/></path></symbol>
<symbol id="thermometer" viewBox="0 0 64 64"><defs><linearGradient x1="23.73" x2="39.18" y1="19.16" y2="45.93" gradientUnits="userSpaceOnUse"><stop offset="0" stop-color="#515a69" stop-opacity=".05"/><stop offset=".45" stop-color="#6b7280" stop-opacity=".05"/><stop offset="1" stop-color="#384354" stop-opacity=".1"/></linearGradient><linearGradient id="b" x1="23.48" x2="39.43" y1="18.73" y2="46.36" gradientUnits="userSpaceOnUse"><stop offset="0" stop-color="#d4d7dd"/><stop offset=".45" stop-color="#d4d7dd"/><stop offset="1" stop-color="#bec1c6"/></linearGradient></defs><circle cx="32" cy="42" r="4.5" fill="#ef4444"/><path fill="none" stroke="#ef4444" stroke-linecap="round" stroke-miterlimit="10" stroke-width="3" d="M32 27v15"><animateTransform attributeName="transform" dur="1s" repeatCount="indefinite" type="translate" values="0 0; 0 1; 0 0"/></path><path fill="url(#a)" stroke="url(#b)" stroke-linecap="round" stroke-linejoin="round" d="M39 41.9a7 7 0 11-14 0 7.12 7.12 0 013-5.83v-17a4 4 0 118 0v17a7.12 7.12 0 013 5.83zM32.5 25H36m-3.5-4H36m-3.5 8H36"/></symbol>
<symbol id="uv-index" viewBox="0 0 64 64"><defs><linearGradient x1="26.75" x2="37.25" y1="22.91" y2="41.09" gradientUnits="userSpaceOnUse"><stop offset="0" stop-color="#fbbf24"/><stop offset=".45" stop-color="#fbbf24"/><stop offset="1" stop-color="#f59e0b"/></linearGradient><clipPath id="a"><path fill="none" d="M33.5 48.5v-9a6 6 0 016-6h17v-26h-49v49h28V53a6 6 0 01-2-4.5z"/></clipPath></defs><g stroke-miterlimit="10" clip-path="url(#a)"><circle cx="32" cy="32" r="10.5" fill="url(#b)" stroke="#f8af18" stroke-width=".5"/><path fill="none" stroke="#fbbf24" stroke-linecap="round" stroke-width="3" d="M32 15.71V9.5m0 45v-6.21m11.52-27.81l4.39-4.39M16.09 47.91l4.39-4.39m0-23l-4.39-4.39m31.82 31.78l-4.39-4.39M15.71 32H9.5m45 0h-6.21"><animateTransform attributeName="transform" dur="45s" repeatCount="indefinite" type="rotate" values="0 32 32; 360 32 32"/></path></g><path fill="#374151" d="M41.69 46.56A1.87 1.87 0 0043 47c1.17 0 1.76-.52 1.76-1.56v-5.87a.66.66 0 01.12-.45.64.64 0 01.44-.12h1.12a.46.46 0 01.57.57v5.77A3.5 3.5 0 0146 48a4.17 4.17 0 01-3 1 4.14 4.14 0 01-3-1 3.5 3.5 0 01-1-2.68v-5.75a.46.46 0 01.57-.57h1.12a.6.6 0 01.43.12.66.66 0 01.12.45v5.83a1.47 1.47 0 00.45 1.16zM57.44 39.56l-3.17 9a.72.72 0 01-.25.38.81.81 0 01-.45.1h-1.13a.89.89 0 01-.45-.09.63.63 0 01-.24-.36l-3.19-9c-.14-.37 0-.56.37-.56h1a1.6 1.6 0 01.73.11.67.67 0 01.3.41l1.63 5.25c.06.23.13.48.19.77s.1.5.13.67v.25h.11a9.3 9.3 0 01.35-1.67l1.6-5.27a.61.61 0 01.3-.41 1.51 1.51 0 01.71-.11h1c.48-.03.6.16.46.53z"/></symbol>
<symbol id="wind" viewBox="0 0 64 64"><defs><linearGradient x1="27.56" x2="38.27" y1="17.64" y2="36.19" gradientUnits="userSpaceOnUse"><stop offset="0" stop-color="#d4d7dd"/><stop offset=".45" stop-color="#d4d7dd"/><stop offset="1" stop-color="#bec1c6"/></linearGradient><linearGradient id="b" x1="19.96" x2="31.37" y1="29.03" y2="48.8" xlink:href="#a"/></defs><path fill="none" stroke="url(#a)" stroke-dasharray="35 22" stroke-linecap="round" stroke-miterlimit="10" stroke-width="3" d="M43.64 20a5 5 0 113.61 8.46h-35.5"><animate attributeName="stroke-dashoffset" dur="2s" repeatCount="indefinite" values="-57; 57"/></path><path fill="none" stroke="url(#b)" stroke-dasharray="24 15" stroke-linecap="round" stroke-miterlimit="10" stroke-width="3" d="M29.14 44a5 5 0 103.61-8.46h-21"><animate attributeName="stroke-dashoffset" begin="-1.5s" dur="2s" repeatCount="indefinite" values="-39; 39"/></path></symbol>
</svg>
